# xmcd
#
# Track frame offsets:
#        150
#        5777
#        23033
#        38781
#        51972
#        65367
#        82526
#        103288
#        123763
#        140981
#        154211
#        168965
#
# Disc length: 2344 seconds
#
# Revision: 0
# Processed by: cddbd v1.5.1PL0 Copyright (c) Steve Scherf et al.
# Submitted via: ExactAudioCopy v0.95a5
#
DISCID=9909260c
DTITLE=The Agony Scene - The Darkest Red
DYEAR=2005
DGENRE=Metal
TTITLE0=Prelude
TTITLE1=The Darkest Red
TTITLE2=Scars Of Your Disease
TTITLE3=Screams Turn To Silence
TTITLE4=Sacrifice
TTITLE5=Prey
TTITLE6=Procession
TTITLE7=Suffer
TTITLE8=My Dark Desire
TTITLE9=Scapegoat
TTITLE10=Forever Abandoned
TTITLE11=Devilock*
EXTD=
EXTT0=
EXTT1=
EXTT2=
EXTT3=
EXTT4=
EXTT5=
EXTT6=
EXTT7=
EXTT8=
EXTT9=
EXTT10=
EXTT11=
PLAYORDER=
